# xmcd
#
# Track frame offsets: 
#        150
#        15535
#        29885
#        48380
#        63281
#        81390
#        94222
#        109767
#        123877
#        143184
#        161899
#
# Disc length: 2379 seconds
#
# Revision: 0
# Processed by: cddbd v1.5.2PL0 Copyright (c) Steve Scherf et al.
# Submitted via: ExactAudioCopy v1.0b3
#
DISCID=9709490b
DTITLE=Lee Fields and The Expressions - My World
DYEAR=1900
DGENRE=Blues
TTITLE0=Do You Love Me (Like You Say You Do)
TTITLE1=Love Comes And Goes
TTITLE2=Honey Dove
TTITLE3=Money I$ King
TTITLE4=My World Is Empty Without You
TTITLE5=Expressions Theme
TTITLE6=My World
TTITLE7=Ladies
TTITLE8=These Moments
TTITLE9=The Only One Loving You
TTITLE10=Last Ride
EXTD=
EXTT0=
EXTT1=
EXTT2=
EXTT3=
EXTT4=
EXTT5=
EXTT6=
EXTT7=
EXTT8=
EXTT9=
EXTT10=
PLAYORDER=
